<svg class="logo-neusta" version="1.2" xmlns="http://www.w3.org/2000/svg" viewBox="0 0 398 398" width="398" height="398">
    <title>logo_neusta</title>
    <style>.s0 { fill: #333 }</style>
    <path id="Ebene 2" class="s0" d="m324.2 118.3c23.2 0 44.8 11.3 58.1 30.2c13.2 19 16.3 43.3 8.3 65c-8 21.7-26.1 38.1-48.5 44c-22.4 5.8-46.2 0.3-63.8-14.7l-57-48.5c-12.1-10.4-22-5.8-22 10c0 0 0 60.7 0 63.1c0 35.8-19.4 68.8-50.7 86.2c-31.3 17.4-69.6 16.5-100-2.4c-30.4-18.9-48.2-52.8-46.5-88.6c1.8-35.8 22.8-67.8 54.9-83.6c0.3-0.1 44.4-19.2 44.4-19.2c7.3-3.2 6.9-7-0.9-8.6l-57.7-11.6c-22.2-4.8-36.4-20.3-36.4-41.6c0-5.5 1.1-10.9 3.2-16c2.1-5.1 5.2-9.7 9.1-13.6c3.9-3.9 8.5-7 13.6-9.1c5.1-2.1 10.5-3.2 16-3.2c7 0 13.2 2.1 19.4 4.7l64.7 27.4c9.7 4.1 22.9 0.6 29.3-7.8c0 0 26.3-34.6 26.7-35.2c4-5.8 9.8-10.2 16.5-12.4c6.7-2.3 13.9-2.4 20.6-0.3c6.8 2.2 12.6 6.4 16.8 12.1c4.2 5.6 6.4 12.5 6.4 19.6c0 4.5-13.1 43.9-13.1 43.9c-3.5 10 2.4 17.5 12.9 16.6c0 0 75-6.5 75.8-6.5z"/>
</svg>
